<?xml version="1.0" encoding="UTF-8"?>
<svg id="Layer_2" data-name="Layer 2" xmlns="http://www.w3.org/2000/svg" viewBox="0 0 1954 712.84">
  <g id="Layer_1-2" data-name="Layer 1">
    <path d="M1950.97,445c-3.63-12.82-10.88-20.51-20.45-29.14l16.1,45.36c-12.88,24.23-16.48,47.83-21.67,74.06-.75,3.94-.88,15.13-5.31,14.98l-3.1-64.15c-3.88-16.29-4.19-33.14-6.66-49.62-.81-5.53-6.19-22.57-5.63-25.14.84-3.72,7.22-3.81,9.29-6.97,6.35-9.69,1.41-26.36-3.31-44.8-9.79-38.3-9.69-77.72-18.76-78.19-1.63-.09-4.53,1.03-5.85-.5-1.78-2.06.19-7.66-.91-8.57-.25-.22-.59-.34-1.06-.34-2.97,0-.84,6.1-3.13,9.54-1.75,2.56-7.38,2.03-7.97,5-3.38,17.73,5.91,84.79,10.25,105.14,4.44,20.76,14.1,14.47,17.6,18.35.56.66,2.66,13.91,3.25,17.1,6.6,36.14,8.63,74.06,9.66,110.64-12.88-12.82-16.41-34.7-32.83-43.74l7.75,17.26c-2.5,15.38,6.72,30.33,1.66,45.24-9-16.73-17.57-30.17-24.17-39.92-18.54-27.26-26.7-32.76-30.54-35.11-6.41-3.88-12.94-6.22-18.98-7.57.06-.59.16-1.22.22-1.81,4-4.47,10.13-10.38,18.76-15.63,8.38-5.1,16.16-7.85,21.88-9.38-4.91-.63-11.32-.94-18.76,0-9.32,1.19-16.76,3.91-21.88,6.25-2.66-24.57-5.03-42.93-6.25-50.02-.25-1.44-.84-4.6-3.28-6.16-3.1-1.94-7.53-.47-8.82.34-1.69,1.06-17.63,30.39-19.79,34.89-14.51,29.89-21.82,59.96-30.36,91.7-1.44,5.35,2.66,8.88-6.53,7.41,4.1-17.98-5.06-35.98-6.13-51.96-1.44-21.57,34.83-60.59,46.77-79.32-20.73,5.19-37.42,22.85-50.08,39.14-1.75,2.25-5.82,14.63-9.44,5.82-4.03-9.88-17.23-24.67-18.26-28.36-.97-3.38,8.54-38.05,10.54-44.8,3.03-10.25,17.13-53.15,23.54-57.74,4.6-3.31,11.29-1.81,15.69-6.94,4.22-4.88,28.01-64.19,31.26-74.28,5.88-18.29,6.35-23.95-.16-42.33-1.38-.34-2.16-.22-2.59.19-1.22,1.13.38,3.91-1,5.35-.88.91-2.38.72-2.63.72-2.5-.09-11.91,14.41-37.52,65.65-13.94,31.2-14.94,41.17-12.51,43.77.31.31,1.69,1.63,2.25,3.72.97,3.75-1.34,7.32-2.25,8.79-2.44,3.94-5.41,10.22-8.66,21.04-7.32,23.95-14.6,47.93-21.92,71.88l-10.1,82.16c-5.91-5.13-20.13-15.82-23.32-21.98-2.19-4.25-19.63-49.27-20.01-52.02-.59-4.16,5.6-6.94,5.82-11.85.22-4.91-32.83-77.63-37.89-84.13-7.32-9.35-18.2-4.31-18.38-14.48-6.47-.66-.09,5-1.78,9.35-.88,2.25-3.91,4.03-4.53,7.94-2.63,16.48,31.73,69.34,36.11,88.95,4.94,5.31,10.69,7,16.95,3.28l15.82,43.68-15.69-10.79c-15.98-20.13-25.39-25.01-47.65-33.73-11.32-4.44-17.04-16.13-30.54-.91-5.78,6.47-5.19,15.98-6.16,17.29-1.06,1.41-19.57-7.66-24.2-8.66-13.38-2.97-15.07,4.69-13.04-14.51,1.88-17.48,13.76-66.81,21.01-82.16,10.85-23.04,46.77-32.55,67.78-47.9,9.1-6.6,19.32-17.51,28.23-24.92l18.73-25.04c-19.76,15.85-42.24,27.36-65.09,38.08-14.48,6.78-41.39,12.35-50.74,24.29-17.82,22.73-23.67,78.13-32.7,106.42-3.88.66-6.38-1.19-9.38-3.13,2.25,13.22,8.19,29.17-6.22,37.52-4.97-15.16-2.38-24.48.03-39.05.34-2.16,3-1.44,3.06-1.59.47-1.66-2.25-6.13-1.5-9.63,9.19-43.61,28.45-92.98,47.8-133.22,7.82-16.23,28.01-43.93,31.83-58.87.41-1.69.88-5.1-1.53-4.63-5.97,8.72-16.66,13.57-23.51,20.26-33.64,32.8-49.62,77.57-56.24,123.56-5.41.72-3-7.16-3.1-10.91-.69-36.14,10.5-87.82,21.04-122.81,2.41-8.04,20.29-61.06,23.07-62.9,4.5-3,12.13,4.66,21.04-8.66,8.35-26.01,23.7-52.12,31.89-77.53,2.75-8.57,10.25-24.29,3.1-34.08-1.97-2.69-4.5-4.22-6.35-5.13.91-1.03,2.56-3.13,3.13-6.25.16-.81.53-2.91,0-3.13s-2.03,1.44-6.25,9.38c-.72-.06-1.81-.13-3.13,0-7.03.63-15.38,5.72-37.52,53.15,0,0-10.5,22.48-15.07,49.12-.31,1.81-.78,5.19,0,9.32,1.16,6.16,5.22,9.88,5.16,11.29-.41,7.72-15.41,35.64-19.13,46.61-18.13,53.68-28.86,114.68-27.23,171.3-8.82,1.5-5.16-1.91-6.97-6.94-10.07-27.86-17.91-49.65-35.48-74.1-5.69-7.97-14.54-12.29-18.57-22.07-3.91-9.6-15.6-65.12-13.35-72.85.91-3.16,4.88-5.57,5.66-10.16,1.47-8.91-16.63-69.34-21.04-82.1-2.06-5.94-6.85-20.2-10.13-24.26-2.03-2.5-10.04-12.26-18.88-10.79,0,0-3.56.59-6.28,3.13-9.04,8.41.19,32.76,10.22,64.19,4.06,12.72,9.54,30.58,15.44,52.4,5.72,11.91,16.29,6.38,18.38,10.29,2.25,4.19,14.29,61.34,12.19,63.84-2.19,2.66-50.74-36.24-57.12-38.2l-11.63.66c57.9,25.61,87.38,95.64,90.63,156.35l-25.54-47.9c-10.1-14.66-19.45-30.29-32.26-42.77l14.16,70.28c1.66,8.29-10.79,5.47-14.23,1.69l-32.42-80.47c-1.25-7.13,6.88-9.97,5.88-20.92-.75-8.29-30.67-84.48-36.05-92.38-9.5-14.01-19.01-8.94-19.85-9.75-2.19-2.09-.78-12.72-6.6-12.26,6.75,13.13-1.53,12.35-4.88,18.82-2.56,4.94,11.85,42.21,15.01,50.77,2.94,8.07,21.92,59.46,24.67,61.31,3.97,2.66,12.57-3.38,18.07,5.38,6.91,11.1,22.1,53.49,26.23,67.56,6.72,22.85-1.13,10.91-15.76,17.38-10.54,4.69-13.26,17.54-19.6,21.04-7.53,4.13-22.42,4.38-32.05,8.6-8.44,3.75-18.85,16.19-23.17,17.48-14.1,4.16-37.52.41-53.21,12.44l-32.23,16.19c9.63-.78,61.87-12.72,65.65-9.35,4.75,4.25-13.13,13.72-10.97,18.73,19.01-21.95,37.77-23.45,63.22-10,20.48,10.79,11.94,33.7,16.51,53.81-5.85-2.25-9.19-8.85-13.97-12.57-2.22-1.72-8.19-6.22-10.97-4.66,3.28,3.06,6.22,6.25,8.82,9.94,7.16,10,29.67,42.02,33.26,51.15,2.5,6.35,1.84,12.13,1.69,18.66,5,1.78,1.34-12.01,7.72-3.1,9.85,13.76,17.66,36.17,27.23,50.96l19.76,52.15c-12.1-15.82-16.95-36.11-29.76-51.52-3.44-4.16-24.23-23.73-28.11-20.32-1.47,1.28,21.04,23.42,24.48,30.2,2.09,4.06,9.91,24.98,9.91,27.61v51.59c-5.94-1-5.22-6.5-6.63-10.57-4.72-14.04-8.94-28.08-14.48-41.83-1.31-3.31-.03-3.38-3.91-3.88,4.22,24.67,16.66,55.84-6.22,75.03l-.06-73.22c-.28-3.03,4.06-2.09,6.28-1.81-.31-1.91-2.81-4.53-3.1-7.97-.5-5.72,2.13-9.29,1.56-13.88-9.22,4.6-9.69,35.98-10.97,37.49-4.5,5.28-5.5-1.72-6.91-4.03-9.69-15.98-4.31-35.52-5.85-53.56-2.16-24.89-10.16-49.46-15.41-73.72-5.41-.72-3,7.16-3.1,10.91-.25,13.29,2.38,22.17,3.28,34.27.5,6.94.69,17.13-1.72,23.6-17.23-31.73-34.67-86.1-75.72-93.1-7.38-1.25-29.48.59-31.76-1.06-1.56-1.13-9.82-23.82-21.23-27.23-5.94-1.75-24.95.59-26.04-.53-.59-.59.38-12.79-.25-16.95-.66-4.6-7.78-31.29-9.29-32.98-.31-.34-7.32-.63-8.82.34-1.97,1.25-20.26,35.64-22.89,41.17-13.76,29.2-22.51,60.96-27.57,92.82-6.94-1.91-4.56-4.1-4.13-8.57.91-9.13,2.85-19.57,4.16-28.95-7.75,3.28,1.53,11.29-6.22,12.51-1.09-9.5-7.44-26.57-5.85-35.23,1.75-9.5,16.63-32.8,24.54-39.8-5.28,20.79-9.5,41.42-12.47,62.53,4.5-1.91,16.35-64.19,21.67-76.82,2.85-6.75,9.07-12.01,12.69-18.57-1.75-3.56-6.13,3.78-6.22.03-.19-5.66,12.13-41.02,15.63-43.77,2.5-1.94,7.63-1.84,11.13-4.5,5.13-3.94,26.98-67.53,28.83-77.47,1.97-10.76,2.59-26.61-12.79-22.42-4.97,1.34-10.88,10.5-13.13,15.26-5.38,11.32-20.26,52.99-22.79,64.75-3.1,14.48,5.75,20.01,5.22,23.85-.41,2.72-17.45,49.18-19.1,51.37-1.44,1.91-12.38,6.63-16.41,10.16-9.38,8.22-20.1,18.85-23.51,31.23l-31.2-35.98c9.44,14.88,16.98,32.33,18.98,50.05l-22.1,64.09c-8.69-39.58-14.38-79.82-22.82-119.46-1.59-7.47-13.13-46.43-11.22-48.96.94-1.28,7.16-.75,8.66-5.41,1.38-4.28.84-16.38.47-21.73-1.03-14.98-7.03-42.71-10.32-58.43-2.47-11.76-7.44-42.74-16.23-49.43-7.66-5.91-17.29-1.69-14.26-18.6-6.66.34-.69,10.6-4.6,15.82-1.75,2.34-7.44,1.88-8,4.94-2.59,13.94,4.6,45.55,7.25,61.21,2.81,16.6,7.28,48.27,12.32,62.72,4,11.47,18.38,10.5,20.73,16.79,10.54,65.37,31.95,128.87,37.95,194.93l-26.7-49.87-17.01-14.26c21.7,28.51,23.26,67,34.33,100.11-7.47,6.66-8.66-9.25-11.88-16.26-6.57-14.16-17.82-29.42-23.14-42.52-6.5-16.1-8.25-38.49-12.72-56.06-2.31-9.1-12.44-31.2-11.19-37.74.69-3.6,4.53-6.94,5.38-10.72,1.41-6.1-22.23-68.37-27.11-78.07-2.66-5.28-5.13-11.35-9.79-15.23-2.63-2.22-15.1-8.28-15.6-7.57-.66,1-5.78,10.97-5.97,11.6-3.91,13.29,27.48,74.88,31.2,92.64,1.94,9.44,16.91,6.82,18.6,10.07,3.28,6.28,9,29.39,11.35,38.14,3.06,11.35,6.69,23.23,7.1,35.08-10.94-12.16-26.64-29.26-46.86-50.02-2.94-3.03-4.31-4.41-6.07-6.13-23.6-23.2-44.52-43.74-64.5-40.74-6.5.97-10,4.56-13.91,1.78-2.59-1.84-9.16-16.57-12.97-21.6-1.69-2.25-5.35-9.32-8.82-6.82l11.16,32.95-39.33,21.76c6.28-2.25,13.6-4.47,21.88-6.22,8-1.69,15.38-2.63,21.88-3.13,9.1,27.64,14.32,48.83,17.26,62.47,1.91,8.79,3.47,16.48,3.22,26.39-.22,8.97-2.28,16.44-4.56,31.8-1.47,9.72,4.06,24.54-6.5,29.42l-10.13-41.49-11.76-21.04,6.28,54.65-3.16,17.26c-3.25-25.17-17.63-55.09-41.52-66.37-4.69-2.22-19.13-3.94-20.57-6.03-3.41-4.85-2.22-26.57-11.51-36.92-8.19-9.13-23.48-5.85-28.26-18.66-3.94-10.66,1.84-12.16,12.69-12.85,23.23-1.53,45.86,29.7,62.59,43.89l-16.66-36.48c-5.97-6.69-12.32-24.76-20.85-26.11-10.13-1.56-24.57,3.13-34.55,6.22-16.23,5.03-10.44,10.25-23.32-7.69-1.72-3.81,62.59-20.13,68.72-21.98,3.75-1.13,10.16.31,9.44-4.6h-64.09c-3.03,0-39.39,17.16-39.05,4.69.19-6.07,50.43-30.98,56.24-39.05-15.38,2.03-30.11,4.5-44.61,10.07-20.57,7.85-33.58,24.2-56.93,24.39-4.66.03-5.72.81-4.47-4.47,3.31-14.26,18.79-44.18,26.23-58.21,6.25-11.82,35.02-60.21,43.64-65.78,7.16-4.66,15.91-1.94,22.85-6.88,8.44-21.13,57.59-72.22,57.24-91.38-.06-4.35-2.63-8.29-2.88-12.63-.19-3.47,3.69-5.78,1.16-7.69-6.44,11-14.44-.53-22.1,5.97-16.54,26.82-41.96,53.43-57.06,80.57-10.54,18.95-.19,20.82-2.09,25.95-2.72,7.25-17.73,22.04-23.01,30.23-7.6,11.82-16.38,27.11-22.95,39.58-7.38,13.91-25.64,63.72-31.55,70.09-1,1.06-17.23,10.97-17.88,10.19-.97-1.16-9.38-26.86-8.97-29.01,7.66-11.57,29.08-70.91,37.05-75.75,4-2.44,9.94-.44,14.16-4.6,3.5-3.41,23.45-45.96,27.11-54.18,4.85-10.88,19.29-34.67,3.56-39.27-15.91-4.66-26.01,24.26-31.86,35.98-4.63,9.29-20.04,39.99-20.92,47.8-.66,5.94,5.35,9.38,4.41,13.79-.63,2.91-15.69,27.61-18.91,34.3-4.19,8.78-8.79,26.57-13.41,33.45-5.03,7.44-23.32-3.91-32.89,3.1,6.85-41.36,20.92-80.57,37.7-118.71,7.07,4.22,13.69,1.34,18.16-5.19,8.6-25.92,23.57-52.09,31.8-77.63,1.75-5.41,5.91-17.45,5.91-22.1-.03-6.94-5.91-9.79-7.47-13.91-1.59-4.19,4.85-10.1-1.66-9.44,1.75,9.72-8,4.38-14.35,9.13-6.88,5.13-45.99,100.42-44.64,107.45.72,3.69,4.69,7.07,5.41,10.69.84,4.25-16.1,42.14-19.2,51.65-5.91,18.1-12.41,61.87-19.66,74.13-1.25,2.16-11.44,12.66-12.32,12.66-2.84,0-4.19-11.38-12.51-12.6-4.88-.75-25.98,2.75-28.36,6.16-3.81,5.44-3.53,42.21-4.75,51.52-1.25,9.6-3.97,21.73-5.97,31.55-3.97,19.7-6.41,6.94-13.97-1.66-14.57-16.41-13.13-8.35-22.13,6.35-1,1.63-2.69,12.29-7.66,6.25-6.66-8.1,28.04-93.6,34.36-107.89l-12.35,12.66-14.19,20.2-4.66-21.88c-15.51,35.55-22.82,73.81-35.11,110.3-5.1,15.07-12.01,28.61-17.32,45.36-1.66,5.31,1.56,8.35-7,6.88,10.22-32.83,16.54-67.16,26.54-100.04,12.26-40.17,27.04-87.98,70.38-103.17.59-6.19-5.69-1.69-8.66-.84-40.52,11.57-52.43,21.67-65.5,62.72-13.26,41.61-20.07,89.16-29.04,132l-6.44-10.88c4.16-26.2,11.29-54.93,12.76-81.29,1.16-20.51-6.22-41.36-3.06-62.5,1.59-10.57,29.61-47.43,39.67-50.99,16.23-5.78,40.74-4.1,57.84-10.94l86.85-27.23-104.48,9.6-64.34,15.38c-4.85-4.22,14.38-14.88,16.63-16.19,22.64-13.41,49.02-19.73,73.06-30.11,12.69-5.5,26.7-18.04,39.92-16.19,6.5.91,10.66,6.47,17.32,6.19.06-4.1-9.25-6.53-12.6-7.69-5.6-1.94-9.91-4.78-16.29-4.16-21.42,2.13-60.46,19.48-83.63,25.98-3.56.97-20.48,6.1-21.92,4.66-2.34-2.38,10.54-38.61,15.73-42.11,3.06-2.06,8.35-1.47,10.91-4.72,1.63-2.09,12.04-32.95,14.07-39.08,2.44-7.25,12.57-36.11,12.41-40.83-.5-15.94-19.92-9.54-26.57,4.78-3.78,8.13-22.64,61.9-22.79,67.94-.16,4.53,4.35,6.35,5.16,9.38,1.16,4.19-12.1,40.67-15.51,45.86-4.63,7.13-13.6,8.88-21.54,8.16,5.13-24.01,8.1-48.55,13.41-72.56,2.41-10.82,13.88-60.9,19.2-65.22,4.56-3.69,12.38-2.88,15.82-9.19,5.85-10.75,16.07-61.87,19.45-77.47,1.25-5.78,7.13-30.45,6.63-33.11-.84-4.38-8.88-7.72-10.44-11.19-1.78-3.94,5.63-12.85-1.5-12.63,2.09,13.66-9.32,11.76-15.6,17.26-7.63,6.66-23.76,76.1-27.36,91.45-3.97,16.98-5.06,21.57,5.28,36.52-7.82,27.2-15.01,54.65-20.85,82.35-2,9.54-8.28,57.12-10.38,60-.88,1.19-9.47-.03-12.41-1.5-7.07-3.5-12.1-15.16-24.89-18.88-5.06-1.47-24.98-1.88-25.32-6.41-.12-1.84,5.78-25.07,6.78-25.95,1.34-1.22,8.75.72,13.98-3.22,7.16-5.44,21.45-56.53,24.79-69,3.19-11.94,11.54-36.39,6.22-46.93-1.44-2.85-3.85-4.91-6.66-6.19.66-2.13,1.31-4.22,1.97-6.32.28-1.41.47-2.91,0-3.13-.72-.34-2.63,2.41-3.13,3.13-.78,1.13-1.78,2.78-2.66,5.03-5.57-1.16-11.6.25-14.63,4.25-2.66,3.5-9.5,28.33-11.69,35.2-4.72,14.73-19.88,58.15-20.29,70.25-.25,7.88,8.44,11.91,8.1,17.54-.47,7.07-8.66,18.79-8.94,27.11l-40.55-6.16c2.09,8.44,33.95,17.07,34.55,20.63,2.06,12.13-7.25,41.83-9.25,56.21-.38,2.69,1.03,30.08-6.53,20.04-.84-1.13-2.78-21.48-4.66-28.17-3.44-12.1-10.16-22.89-13.35-33.55-6.69-22.6-9.22-52.46-14.16-76.5-1.94-9.35-16.35-61.93-14.32-64.56.72-.97,5.25-.97,7.28-3.53,1.94-2.44,4.44-10.82,4.44-14.07-10.13-36.05-10.54-79.32-23.1-114.11-7.5-20.85-12.41-11.29-19.82-16.1-3.22-2.06-.66-15.29-6.69-15.19,7.07,17.16-5.63,14.6-8.88,19.26-4.5,6.38,7.35,68.91,9.72,81.47,1.97,10.29,9.79,56.43,14.73,60.31,6.13,4.81,13.79-.25,17.29,10.72,11,34.52,14.19,77.16,23.35,112.74-17.98-13.54-23.32-36.36-33.8-55.27-13.19-23.92-29.79-46.43-38.11-72.91-5.88-.63-2.59,6.38-1.72,9.57,6.25,23.26,17.29,45.36,23.6,68.59-21.32-13.97-43.05-25.67-67.09-34.48-5.41-1.97-15.16-6.94-20.42-4.6,8.22,5.97,15.82,14.23,23.48,20.29,21.1,16.79,74.78,46.49,83.51,69.69,6.03,16.04,13.29,58.31,14.79,76.03,1.69,19.6-.59,44.52.09,65.4.41,11.63,7.19,22.67.03,35.89l-5.97-26.82c-2.53-31.45-3.06-67.81-15.32-97.23-5-12.04-18.2-26.23-21.07-35.2-2.59-8-1.03-34.98-9.57-37.33-4.38-1.19-9.82.19-14.63-1-14.29-3.5-32.11-20.13-48.27-12.63-5.22,2.44-7.78,7.13-11.72,10.16-9.82,7.47-6.66,1.38-9.38-6.25-3.85-10.66-13.07-34.95-22.29-40.3-4.1-2.41-11.25-2.63-13.04-4.38-1.72-1.75.78-5.41-2.22-5.41-1.06,0-4,16.51-7.28,19.76,5.5,19.41,16.13,37.52,21.23,56.59-19.76,14.16-39.52,28.33-59.28,42.49-4.63-.19-11.41.16-18.76,3.13-2.38.94-4.44,2.03-6.25,3.13h18.76c-1.78,1.31-4.1,3.35-6.25,6.25-2.66,3.56-4,7-4.72,9.35,2.63-3.41,9.79-13.04,22.57-15.16,4.16-.69,31.51,4.72,35.33,7.38,4.6,3.19,2.41,3.19.53,6.78l-11.54,19.76,21.85-21.26c13.72,6.85,24.04,16.79,32.86,28.2-21.1,4.41-44.24,13.79-58.28,33.51-6.85,9.63-11.38,21.51-15.16,31.48-2.81,7.38-15.38,50.71-18.79,65.62-.81,3.56-.03,10.22-4.63,9.41l-8.97-60.25,9.5-18.91,28.42-42.55c2.84-4.25,5.69-8.47,8.54-12.72-4.25,2.47-8.5,4.94-12.76,7.41-14.63,9.41-25.73,19.98-37.33,34.89-1.03,1.34-3.75,8-6.19,8.91v264.56h619.03c-.16-15.38,5.1-33.92,15.6-45.36-2.13-1.69-8.13,2.16-9.57,3.69-9.54,10.13-14.98,24.45-23.23,35.42-3.72-6.07.97-18.35,4.03-24.1,3.85-7.25,47.74-48.12,50.65-44.68,1.75,2.03-15.1,43.43-16.38,50.8l-14.85,24.23h1328.72v-264.56c-1.13.44-2.19-.31-3.03-3.28ZM1325.59,425.21l-27.07-18.26-10.44-3.66c2.31-7.6,37.89-21.54,40.64-18.73l-3.13,40.64ZM403.31,337.67c3.53,3.44-14.79,20.29-18.73,21.88-6.22-9.75,14.6-25.86,18.73-21.88ZM181.33,309.53c-1.28,1.31-34.42-7.66-34.36-10.94,19.23-16.51,35.98-21.45,34.36,10.94ZM131.72,343.02c.72-3.6,4.72-6.88,5.16-10.44.47-3.75-4.69-14.51-2.44-16.79,1.91-1.91,46.96,9.22,49.49,17.73l25.51,166.73c-.47.59-8.13-5.31-13.29-9.44,3.63-.13,7.03-.06,10.19.06-1.72-.44-6.6-1.66-13.57-2.85-.69-.59-1.16-.97-1.25-1.09-13.26-14.63-33.14-81.88-43.05-105.45-3.75-8.85-18.2-31.36-16.76-38.45ZM164.67,494.58c7.88,10.76,16.19,23.64,23.95,38.67-4.19,1.19-9.07,2.81-14.35,4.94-1.59-3-3.22-5.94-4.88-8.82-2.09-3.69-10.72-18.76-17.79-31.11,4.41-1.5,8.79-2.72,13.07-3.69ZM145.13,486.92c-.47-.84-.91-1.63-1.31-2.31,2.66.53,5.28,1.06,7.91,1.59-2.19.16-4.38.41-6.6.72ZM155.69,430.52c-9.91-11.07-18.76-23.1-28.17-34.55,5.78-2.47,12.04-4.85,18.88-7.1,6.22,17.01,11.88,34.58,19.29,48.8-6.94,1.66-6.97-3.81-10-7.16ZM59.4,340.76c-1.44-7.38.75-4.94,4.03-6.88,4.56-2.66,35.17-16.35,36.61-14.98,2.69,2.63-15.69,25.01-15.88,31.01-9.72,2.28-14.73-9.16-24.76-9.16ZM90.82,357.65c-1.16-5.16,13.91-15.38,17.04-19.98,2.84-.56.53,3.75,2.25,5.35,4.6,4.25,12.94-1.19,17.63,5.85,7.38,11,13.04,24.76,18.29,38.96-6.66.28-14.76.94-23.42,2.34-.72-.84-1.44-1.69-2.19-2.53-4.81-5.47-28.89-26.7-29.61-29.98ZM66.19,443.75c6.88-11.38,21.38-29.36,54.84-44.89,6.07,8.75,11.47,18.1,17.1,27.36l18.2,52.15c-3.13-1.03-6.25-2.09-9.38-3.13-3-.13-6-.25-9-.38-.69-3.28-2.34-8.72-6.6-13.76-1.59-1.91-3.47-3.6-5.57-5.1,10.91-4.41,18.6-6.85,18.04-8.91-.03-.13-.09-.28-.31-.5-38.17-4.31-59.15,4.1-71.34,12.97-5.38,3.94-13.57,11.22-15.88,9.38-3.47-2.78,9.13-23.89,9.91-25.2ZM61.93,513.72c5.91-12.69,9.41-20.07,17.04-28.33.91-.97,1.84-1.94,2.78-2.88,1.72,6.25,5,10.5,5.75,11.47,2.06-14.01,5.38-20.23,8.54-22.89.22-.19.47-.34.72-.5.28-.25.56-.41.88-.56h.03c.5-.25,1-.44,1.47-.56,7.13-1.84,16.04,7.41,26.29,22.04-11.47,3.91-22.45,10.13-31.61,19.7-4.78,5-9.75,11.66-13.88,20.51l-42.39,77.94c3.6-44.8,15.44-76.72,24.39-95.95ZM54.71,687.8c-3.19.13-4.13-9.13-4.66-13.94-2.75-25.39,5.31-46.27,6.22-48.55,24.85-62.47,37.3-93.7,65.65-112.55,4.19-2.78,8.41-5.22,12.66-7.38,3.97,6.22,8.1,12.94,12.35,19.88,4.47,7.25,8.13,13.66,11.63,20.2-2.84,1.5-5.66,3.1-8.5,4.81-23.82,14.51-37.99,32.08-42.18,37.55-16.38,21.29-27.45,47.24-37.58,71.84-1.91,4.63-13.04,28.04-15.6,28.14ZM137.53,694.08c-1.03.06-2.47.06-2.47.06-1.28-.06-2.75-.19-3.75-.09,1.38-3.88,2.78-9.19,3.13-15.6.53-9.5-1.47-17.16-3.13-21.88.47,4.97,1.16,19.51-8.1,33.33-4.53,6.75-9.91,11.04-13.76,13.57-5.38-24.57,4.5-45.33,18.73-50.02,8.5-2.78,17.1.63,21.88,3.13-5.1,21.6-10.16,37.39-12.54,37.52ZM197.71,693.02c-.34-6.22-.91-12.07-1.63-17.54-.91,7.57-2.53,12.69-5.35,9.22-2.38-2.91-7.66-40.61-13.26-47.74l-11.79-21.04c2.41,12.44,7.97,26.36,7.78,39.08-.09,7.41-3.28,14.94-4.38,22.17-1.13,7.5,4.03,22.64-6.53,20.04-2.47-25.61-5.85-50.9-6.25-76.63-.03-1.28.91-5.6-.81-10.5-2.25-6.41-7.5-10.47-11.69-12.91,2.5,7.32,5.03,16.82,6.25,28.14,1.19,11,.81,20.6,0,28.14-1.69-1.75-10.22-10.29-21.88-9.38-11.63.91-19.01,10.6-21.07,13.32-3.35,4.41-2.03,6.78-12.76,23.2-1.59,2.44-6.07,11.19-9.94,7.22-1.5-1.53,11.97-35.52,14.1-40.58,4.88-11.41,11.57-22.07,16.6-33.42,7.1-12.66,18.7-30.17,37.02-46.8,4.16-3.78,8.29-7.16,12.29-10.22,3.97,7.97,8.19,16.82,13.54,28.08,2.78,5.85,12.29,25.61,16.66,47.4.5,2.47,1.41,7.32,2.16,13.57,1.88,15.69.84,24.26.94,47.21ZM208,606.6c-3.85-7.07-15.41-33.55-29.14-59.87,4.75-3.03,9.07-5.5,12.69-7.53,13.63,28.01,20.51,53.81,24.17,73.56-8.25,1.66-5.35-1.81-7.72-6.16ZM278.22,572.15l-6.28-23.39-3.03-82.91c4.41-.72,4.38,5.47,5.31,8.69,10.07,34.36,7.66,62.72,4,97.61ZM275.15,434.59c-4.44-5.31-5.22-23.1-9.41-29.7-1.25-15.01,1.72-32.23,0-46.9-.09-.72-6.85-18.57,3.1-7.82.97,1.03,9.41,25.17,9.41,26.57v50.02c0,.47,2.91,2.78,3.19,6.19.22,2.81-6.07,1.88-6.28,1.63ZM303.26,486.2c-1.06-54.24-2.63-112.18,10.29-164.89,1.16-4.69.94-9.82,6.91-8.75,6.38,1.16,27.07,17.1,26.2,23.01-.66,4.16-6.47,10.97-8.22,16.95-4.35,14.69-4.41,32.64-7.94,48.33-7.28,32.23-16.66,64.09-24.14,96.26-5.41.75-3.03-7.16-3.1-10.91ZM318.86,556.52c-5.82-.03-3.19-13.29-2.84-16.95.53-5.13,1.88-13.94,2.84-19.04.88-4.63-.06-9.57,6.25-10.91l-6.25,46.9ZM325.18,500.24c-1.66-12.01,2.81-22.54,5.28-33.92.72-3.28,3.88-5.88,4.06-6.72,1-4.35-.72-10.72.69-16.48,4.91-19.95,12.82-51.09,21.79-68.91,1.75-3.44,4.35-7.85,7.25-2.19,3.81,7.35,5.78,24.07,4.03,32.23-5.6,8.13-20.35,61.53-25.95,61.4-.28,0-3.35-2.09-4.69-2.94.78,4.47,3.13,7.69,1.84,12.54-1.41,5.31-9.29,21.26-14.32,24.98ZM338.46,612.04c-1.75,3.72-1.47,9.32-7.03,10.13-3.19-28.64,7.57-55.27,12.47-82.91.72-4.1,2.03-10.07,6.25-4.63.72.94,2.97,20.01,3.16,23.39,1.38,23.92-5.31,33.73-14.85,54.02ZM378.26,594.03h-1.53c-6.53-5.25-7.63-10.94,1.56-9.38l-.03,9.38ZM368.92,526.88c-.75,4.03-1.91,10.1-6.25,4.63,2.09-14.19-7.69-24.67-6.16-38.83,1.13-10.25,10.75-33.73,14.82-44.9,1.81-5.03-1.84-8.44,6.97-6.94,1.75,29.17-4.13,57.62-9.38,86.04ZM487.69,532.73c-1.16,13.6-6.6,29.26-6.91,43.43l-24.35,46.02c-2.03,2.44-6.85,1.34-6.13-4.56,2.09-17.16,6.25-34.67,9.32-51.71l12.44,12.51c-1.44-19.04-16.91-40.74-7.75-59.37,7-14.23,24.2,4.25,23.39,13.69ZM679.99,462.76c2.28,0,8.91,10.66,6.44,15.57-2.69,5.28-20.92,20.04-26.73,26.64-4.06,4.56-8.35,10.5-12.66,15.63-2.5,2.97-2.53,7.13-3.03,7.78-5.16,6.41-8.03-4.41-4.56-12.41,2.94-6.78,36.99-53.18,40.55-53.21ZM629.78,481.55c1.53-3.16,23.7-24.14,28.33-28.2,2-1.78,8-9.32,10.94-6.25,2.13,2.25-3.31,9.75-4.94,12.26-7.07,10.82-17.45,23.29-25.61,33.73-1.13,1.44-2.97,10.16-6.97,4.03-.47-.75-2.78-13.44-1.75-15.57ZM587.73,447.09c2.56,3.19-4.91,10.97-6.19,9.38-2.56-3.19,4.91-10.97,6.19-9.38ZM575.23,425.21c.56.72,6.03,15.69,6.07,17.07,0,3.56-4.5,20.51-7.6,20.42-1.22-.06-13.1-19.07-13.16-20.26-.22-3.6,10.79-22.2,14.69-17.23ZM497.91,593.28c-1.91,9.97-2.19,21.76-3.97,32.01-5.44.72-3-7.13-3.1-10.91-.47-19.48,4.03-36.61,3.38-56.06l7.53-20.54c2.91,3.1,7.5,5.19,7.25,10.25-.47,10.13-8.69,32.7-11.1,45.24ZM505.76,530.63c-3-4.06-5.82-7.66-5.78-13.1.09-11.79,7.66-45.27,11.1-58.03,2.88-10.69,7.32-21.51,12.6-31.17,19.54,16.69,4.66,37.67-.72,58.68-3.97,15.66-8.79,31.48-10.22,47.62-7.44,1.72-5.03-1.38-6.97-4ZM549.62,510.56c-1.56,7.25-15.1,31.64-19.63,39.77-1.97,3.47-3.16,8.57-7.85,9.32,8.1-30.14,10.69-58.59,23.57-87.54,1.03-2.31,2.56-11.6,7.66-6.22.5.5-3.03,8.41-3.28,13.88-.5,9.94,1.59,21.17-.47,30.8ZM562.75,478.36c1.81,1.81-.12,15.73-6.22,15.63l-.03-15.63h6.25ZM600.77,555.42c-8.1,23.23-24.57,47.4-31.17,72.03l-13.07,22.85c8.69-33.61,19.54-67.5,33.67-99.17,2.13-4.72,2.22-6.16,8.47-3.97,5.91,2.03,3.35,4.72,2.09,8.25ZM600.99,530.38c.19-1.84,14.79-34.02,16.48-33.26,3.22,1.47,7.91,13.51,7.22,16.73-1.53,7.25-16.91,19.82-15.07,30.17-7.16,3.31-9-9.82-8.63-13.63ZM620.68,547.08c1.06-1.97,2.75-11.79,7.72-6.19,1.88,2.16-3.03,9.75-4.94,12.26-3.13.75-8.82,18.04-13.82,12.72-.75-.78,9.1-15.16,11.04-18.79ZM627,612.82c-5.35,5.38-10.88,11.72-17.32,15.6,1.28-8.54,8.72-15.51,13.16-22.85,4.5-7.41-.78-11.63,11.79-5.28-.22-5.38-.31-10.6,1.41-15.82,4.13-12.54,45.96-55.84,58.21-63.72,2.94-1.88,19.04-10.88,20.2-10.88,1.63,0,19.1,26.17,17.13,27.86-1.5,1.28-19.85,7.85-25.07,10.91-28.54,16.76-56.68,41.27-79.5,64.19ZM709.72,700.33c-1.72-2.09,2.41-10.82,2.88-14.29.44-3.38,2.56-11.47-2.88-10.72-2.85,13.22-12.01,25.45-21.88,34.39-2.53-6.57,13.82-44.96,15.98-46.52,1.19-.84,17.73-1.03,18.38-.38,5.94,5.88-8.38,42.49-12.47,37.52ZM753.49,678.45l-6.25-15.63c1.59,4-.16,48.24-6.25,40.64-1.16-1.44-5.6-31.48-6-36.24-1.56-17.76.56-36.55-.31-54.43l-8.6,24.2c-.03,36.2-5.69,12.16-18.45,10.72-10.44-1.16-12.66,10.94-16.66,13.51-1.69,1.09-5.28-1.53-5.85-1.06-1.19,1.03-11.51,22.45-14.66,27.67-1.06,1.75-2.56,12.07-7.66,6.25-3.85-4.44,26.92-74.6,35.33-83.47,4.91-3.5,44.11-25.29,45.96-22.82,3.38,4.53,2.25,25.86,3.38,32.58,2.38,14.51,8.03,28.64,9.29,43.89.25,3.19,2.03,14.82-3.25,14.19ZM795.67,700.33c-5.25-12.38,1.66-25.04,1.53-37.52l-9.32,12.51-4.75-18.73-10.88-21.92c1.28,15.51,6.22,31.33,1.53,46.9l-13.72-39.02c4.85-6.88,4.38-43.68,5.91-45.4,6.97-7.69,10.1,19.98,15.6,18.76,0-14.35-6.41-28.01-12.47-40.61l15.63-3.16,24.67,89.04c-3.53,13.22-3.5,28.67-13.72,39.14ZM897.21,545.51c-4.91,36.48-2.34,75.63-3,112.68l-6.28,17.13c1.06-38.55.19-71.28-1.09-96.48-2.84-56.46-7.85-78.35-14.57-97.36-6.25-17.66-13.47-31.48-18.76-40.64,8.94-.69,24.64-.59,41.36,7.1,12.35,5.66,20.13,12.97,27.79,20.67,5.57,5.6,14.04,14.85,31.45,42.02,17.41,27.17,25.17,41.42,31.42,59.25,3.5,9.97,4.1,22.95,5.5,33.55-4.72-.72-5.85-5.85-7.85-9.32-15.32-26.89-30.11-54.21-49.9-78.29-3.78-4.63-13.94-11.69-15.85-15.63-2.59-5.28,4.63-21.29,4.85-28.08l-9.44,18.76-14.04-6.22c-1.34,4.19,5.1,7.88,6.53,12.35,3.19,9.75-6.41,35.73-8.13,48.52ZM972.03,660.97c-.63,4.22-4.91,26.89-7.53,26.89l-7.85-81.32c-5.41-.72-3.03,7.16-3.1,10.94-.47,22.79-2.09,44.61-3.16,67.22-5.41.72-3.03-7.16-3.1-10.91-.41-19.57.16-38.52-3.16-57.87-7.07.59-1.09,16.29-3.13,18.76-.84,1.06-6.22-4-6.22-4.69v-48.46c-6.44,1.28-5.22,6.44-6.25,10.94-4.53,19.7-4.94,54.62-3.16,75.06.81,9.41,6.78,23.23,6.32,31.2-.47,8-10.41-5.19-11.82-13.19-1.59-9.07-3.44-24.29-4-33.51-2-34.55,0-71.06,6.41-104.89-4.38-.75-4.31,5.31-5.44,8.6-1.41,4.06-2.5,7.97-3.69,12.1-1.5,5.13,2.84,8.97-6.5,7.44l6.25-62.53c7.38-1.69,5.03,1.22,7,4,16.51,23.26,39.17,54.84,50.93,80.32,8.22,17.73,4.16,44.3,1.19,63.9ZM984.78,697.21c-.44.47-2.91-.41-4.63,0-4.41-.5,1.53-3.97,1.53-4.69,0-19.57,1.91-43.71,0-62.53-.28-2.88-8.97-9.19,3.1-7.82-1.22,11,12.26,26.92,12.32,35.83,0,3.44-10.91,37.7-12.32,39.21ZM997.35,600.29c4.41-.72,4.22,5.28,5.41,8.6,3.78,10.44,7.66,21.26,10.16,32.05-11.38-9.41-17.35-26.32-15.57-40.64ZM1053.57,650.31l-5.94-20.57c1.44-30.01,3.44-60,6.22-90.17l5.97-20.57c3.5,44.24-7.91,87.26-6.25,131.31ZM1136.45,431.49c5.75.16,10.75,25.29,7.5,27.79-1.31,1-6.53.22-8.72,2.16l-15.98,10.63c3.19-5.5,13.04-40.67,17.2-40.58ZM1100.52,612.79c3.03-29.92,9.63-61.93,21.26-89.7,5.5-13.1,13.44-31.01,25.57-38.49l3.13,12.51c-2.28-22.95,15.79-36.74,23.7-9.44,3.6,12.38-10.22,17.54-17.38,26.67-20.29,25.86-35.3,58.59-49.24,88.32-1.75,3.72-1.47,9.29-7.03,10.13ZM1300.55,647.18l-6.19-6.25c-.19,5.63.53,11.38-.22,17.04-1.25,8.97-8.6,18.7-9.19,6.44-.31-6.22.12-12.54,0-18.82-.06-3.75,2.31-11.63-3.1-10.91.03,8.75-.47,20.92-3.28,29.04-.94,2.75-4.75,1.88-6,4.44-2.09,4.22-2.5,11.63-3.28,16.54-5.41.72-3.03-7.16-3.1-10.91-.59-30.17-.69-59.71,6.22-89.13-4.41-.72-4.19,5.28-5.41,8.6-5.44,14.85-7.32,30.98-14.88,44.55l-7.78-31.26-.06,25.01-6.19-6.25c-.03,5.25.94,10.69-1.56,15.66-4.81,9.66-4.97-7.03-7.82-3.16-1.66,2.28-6.82,28.58-9.35,36.02-2.56,7.6-6.07,17.07-11,23.39l10.97-67.19-.06-29.73-8.5,30.54-7.1,10.1v-45.33l-6.22-17.2c-3.6,33.73-10.38,71.25-19.54,103.98-.47,1.69-6.41,20.38-11.76,14.79,8.75-21.85,13.1-45.4,15.6-68.75l-11.85,27.2c-8.07,13.19-14.94,25.45-27.2,35.33-2.88-.19-1.81-5.41-1.44-7.69,2.69-15.38,22.64-44.24,29.54-61.12,5.91-14.35,11.1-31.58,14.07-46.86l-29.95,43.49-34.11,40.92c-3.13-.31-1.59-4.94-.97-7.22,10.72-38.02,49.62-77.78,74.56-106.89,3.78-4.44,2.75-13.6,10.72-4.6l29.76,46.8c-1.25-23.1-7.6-46.05-15.1-67.81,6.13-17.76,14.07-7.85,23.01,2.09,8.88,9.85,19.7,23.92,27.86,34.67,7.91,10.41,30.45,39.89,34.52,49.87,4.94,12.13-2.75,27.95-4.63,40.58ZM1316.25,681.57l7.78-43.77c14.19,11.41,3.75,33.8-7.78,43.77ZM1381.87,359.59c3.94-3.78,20.26,13.41,15.6,18.73-3.22,3.72-18.13-16.32-15.6-18.73ZM1375.58,356.43l3.16,15.63-18.76-3.13c-.25-8.57,7.85-13.88,15.6-12.51ZM1347.48,497.12c-3.66,4.06-14.07-11.47-14.98-14.69-1.25-4.47,1.13-30.67,2.47-32.2,3.53-4.06,14.32,11.69,15.16,14.76,2.09,7.6-5.88,22.48-2.66,32.14ZM1338.19,439.47c4.75-9.97,5.78-51.74,12.26-56.68,3.44-2.63,32.86,2.88,36.11,8.04,5.1,8.1,9.19,36.11,10.91,46.9l-11-18.66c-18.23-15.73-23.82,5.44-29.73,20.1-1.66,4.13-2.53,13.66-3,14.19-2.81,3.16-16.41-9.32-15.54-13.88ZM1369.33,534.63c-4.81-2.72-15.35-19.54-15.69-23.51-.38-4.16,4.06-21.7,7.91-23.39,5.41-2.34,10.63,41.3,7.78,46.9ZM1418.57,565.15c-8.38-17.73-14.85-36.39-24.76-53.4-4.5-7.66-29.58-38.58-29.79-41.11-.12-1.59,10.63-28.54,11.69-29.73.75-.84,7.07-.28,9.44,1.34,13.13,9,34.8,111.89,40.46,133.03-5.6-.81-5.25-6.44-7.03-10.13ZM1435.92,557.21c-4.91-16.82-10.54-33.77-15.16-50.52-2.81-10.29.16-20.95-6.85-30.67l-22.67-82.04,13.94,9.47c16.23,53.68,33.55,105.73,36.05,162.45-4.41.72-4.38-5.47-5.31-8.69ZM1475.66,584.66c-5.75-1.22-5.94-6-6.41-10.79-2.91-30.01-3.44-60.84-6.03-90.88-4.03-46.43-17.91-93.29-25.11-140.63-.28-1.88-.84-5.16,1.59-4.69,9.5,16.23,18.85,38.58,24.35,56.93,4.13,13.85,4.22,21.51,5.25,35.36.34,4.13,3.47,10.22,3.06,12.22-1.09,4.97-10.04,2.72-9.22,8,13.72-1.81,7.78,2.16,9.54,10.72.56,2.91,2.97,5.97,2.97,6.5v117.24ZM1492.86,450.22c-2.03,0-2.03-3.13,0-3.13s2.03,3.13,0,3.13ZM1688.26,506.5v53.15c-6.41-1.28-5.25-6.44-6.25-10.94-3.44-15.41-4.28-31.73-9.41-46.86l15.66,4.66ZM1664.71,490.96l14.16,53.02c-3.85,3.91-8.19-4.75-10.07-7.1-16.51-20.76-30.26-47.62-46.77-68.91l-7.28-17.73,49.96,40.71ZM1592.9,456.47l23.42,34.39c-9.47-6.6-15.79-16.54-23.42-25.01-4.56-5.03-6.53-3.91,0-9.38ZM1581.96,442.44c1.09,5.22-7.25,9.88-9.38,7.78-4.88-4.91,7.13-18.29,9.38-7.78ZM1550.69,443.97c2.41,1.72-9.54,28.76-10.94,28.14-2.59-1.19-9.38-17.23-10.32-20.95-4.6-18.16,9-7.66,21.26-7.19ZM1500.7,553.39c-1.78-31.01,7.41-61.4,9.44-92.17.41-6-1-5.1,6.13-4.75-1.34,11.79,13.41,38.08,11.04,47.21-1.69,6.6-11.85,15.48-14.76,22.51l-11.85,27.2ZM1533.5,547.14c8.38,5.91,1.53,18.98-1.19,26.95-1.41,4.03-.66,9.57-6.6,10.57l7.78-37.52ZM1535.03,675.32l-6.41-23.35c2.81-10.29,3.66-21.2,6.32-31.48,1.13-4.31.19-9.66,6.35-10.82.34,21.92-4.1,43.83-6.25,65.65ZM1550.73,512.75c-5.22-18.1,7.16-38.3,14.85-55.46,2.34-5.16,8.1-5.94,10.13-3.94.97,1-8.16,24.48-9.25,26.17-1.56,2.34-5.44,1.84-5.85,2.41-.44.59,2.16,5.16,1.28,8.94-1.41,6.25-4.91,19.1-11.16,21.88ZM1563.2,672.19c-7.66,9-6.63-16.85-6.32-20.38,1.66-18.41.53-23.64,0-40.52-.47-15.1.44-30.33.09-45.4,16.73,9.82,6.69,28.61,6.16,42.14-.38,9.79,2.13,61.72.06,64.15ZM1568.58,538.42c-.78,3.91-.91,15.13-5.35,14.98-7.19-16.57-.91-28.08,5.5-43.08,1.97-4.66-2.03-8.57,6.97-6.94-3.85,11.41-4.85,23.35-7.13,35.05ZM1641.02,664.03c-1.28,7.28-1.72,20.73-9,23.79,1.16-23.6-1.03-46.68-3.41-70.09l-5.97-17.45c-2.09,7.07,2.72,14.44,2.72,20.32,0,4.44-2.81,9.6-2.91,15.51-.16,7.32,1.66,46.68.12,48.58-.84,1.06-6.22-4-6.22-4.69,0-17.76,2.25-42.89,0-59.4-.12-.94-3.22-9.07-6.22-7.82l-3.13,18.76c-3.19-15.16-2.91-29.92-3.16-45.33-.06-3.78,2.31-11.69-3.1-10.94-3.75,27.45-8.57,54.96-6.35,82.91,1.09,13.54,7.16,28.14,6.28,42.14-15.79-8.47-11.04-30.51-12.41-45.4-.56-6.28-3.03-11.69-3.35-18.54-1.25-29.83,2.75-59.78,6.38-89.26l-9.38,28.14c-5.44.72-3-7.13-3.1-10.91-.34-14.88,1.69-29.01,3.13-43.8.28-2.91,3.63-1.38,6.22-1.56,10.47,22.29,26.54,41.86,38.11,63.53,18.13,33.8,21.7,42.02,14.73,81.51ZM1658.46,684.61c-1.22,3.41-3.56,12.63-7.72,12.6v-56.28c13.26,13.07,13.51,27.36,7.72,43.68ZM1667.87,631.61c-20.38-36.42-38.49-71.69-62.68-106.14-4.38-6.25-15.76-16.23-18.7-22.2-.53-1.13,1.19-21.54,1.72-24.92l-12.51,15.63,9.41-28.14c3.75-.28,4.53,4.69,6.22,6.25,18.91,17.51,60.31,100.08,71.19,127.34,5.1,12.79,10.04,28.04,13.19,41.49-4.69-.75-5.88-5.85-7.85-9.32ZM1644.49,528.41c6.94-1.63,6.97,3.78,10,7.16,5.19,5.85,24.2,23.51,25.95,27.2,4.1,8.44,4.16,30.61,4.66,40.64l-40.61-75ZM1694.48,603.41c-10.32-5.82-5.28-24.04-9.32-34.39,12.57,6.69,9.1,22.57,9.32,34.39ZM1691.41,537.76c-.81-5.47.5-10.38,1.5-15.66.66-3.41.28-10.19,4.69-9.35l-6.19,25.01ZM1699.23,503.34c-10.32-4.81-2.25-27.61-1.53-35.86,1.13-12.41,2.34-25.01,3.16-37.52.41-6-1-5.1,6.13-4.75-.41,9.94,7.1,17.98,8.72,27.29,2.47,13.97-5.66,27.89-10.38,41.39-1.19,3.41-.06,12.29-6.1,9.44ZM1716.36,647.18c-4.28.44-5.69-11.5-5.97-14.32-2.91-30.61,4.91-65.47,6.32-96.36l5.91-17.51c3.44,43.43-8.94,84.76-6.25,128.18ZM1866.46,550.26c3.41,14.26,3.56,26.45,3.16,34.39-3-7.25-7.69-17.29-14.85-28.36-2.38-3.66-6.44-9.94-11.35-15.94,3.44-7.25,7.19-13.35,10.54-18.23-4.31,5.1-8.66,10.22-12.97,15.32-1.84-2.13-3.78-4.16-5.78-5.94-4.38-3.94-9.22-6.97-14.23-9.29,5.38-10,10.88-18.82,16.13-26.45,20.88,20.35,26.92,44.33,29.36,54.49ZM1808.72,548.39c1.44-3.47,2.94-7.03,4.6-10.63.63-1.38,1.25-2.72,1.88-4.03,7.63,4.94,12.88,9.91,16.57,14.63-4.06,4.81-8.13,9.6-12.19,14.41-.56-1.47-3.53-8.85-10.85-14.38ZM1813.31,569.02c-6.25,8.35-12.51,16.66-18.76,25.01,2.44-11.19,6-24.14,11.29-38.24,4.85,5.63,6.91,11.5,7.47,13.22ZM1810.19,478.36c1.03,6.25,2.06,12.51,3.1,18.76.72-5.75,1.44-11.5,2.19-17.26,9.1,4.97,15.63,10.35,19.73,14.13.56.53,1.13,1.06,1.69,1.59-7.88,8.57-14.66,16.88-20.54,24.73-10.07-3.75-20.54-4.94-29.23-5.06,7.28-14.6,15.38-26.86,23.07-36.89ZM1782.05,468.95c2.94-8.47,5.16-13.1,9.38-21.85,6.63-13.76,9.47-16.82,11.35-16.44.53.13.91.5,1.16.81,1.03,8.35,2.09,16.66,3.13,25.01-4.22,2.47-10.04,6.41-15.63,12.51-11.29,12.29-14.51,25.42-15.63,25.01s2.19-13.35,6.25-25.04ZM1764.48,609.85c-1.09-.34-1.28-2.88-1.25-4.91,1.31-21.26,6-52.09,21.7-85.26,9.75,3.35,17.76,6.88,24.32,10.5-3.31,4.78-6.25,9.35-8.88,13.66-10.13-3.56-18.91-.75-21.45.16,3.56-.13,9.38.22,15.63,3.13,1.03.47,2,1,2.94,1.59-2.28,3.91-4.28,7.53-6.07,10.91-11.91,22.7-23.04,51.43-26.95,50.21ZM1785.17,640.93c-8.47,21.51-11.66,37.52-12.51,37.52-.88-.22,1.06-19.82,9.38-40.64,7.35-18.38,17.38-31.89,25.01-40.64-6.03,9.82-14.35,24.64-21.88,43.77ZM1819.56,603.41c-1.09,13.51-5.57,24.2-9.38,31.26.78-7.82,1.91-19.73,3.13-34.39,1.34-15.94,1.94-24.98,3.13-25.01.66,0,1.66,2.75,3.13,15.63.31,3.75.38,7.94,0,12.51ZM1825.82,690.95c-1.88-.03-3.13-20.88-3.13-34.39,0-15.57,1.59-28.48,3.13-37.52,1.03,4.66,2.28,11.07,3.13,18.76,3,27.48-1.03,53.18-3.13,53.15ZM1852.42,640.96c-1.19,1.34-3.22,3.63-4.72,3.1-3.28-1.16-1.41-14.98,0-21.88,1.22-6.03,3.72-14.85,9.38-25.01-3.91,2.63-9.57,7.13-14.26,14.29-1.84,2.84-4.28,7.22-6.16,13.91l-4.75-26.48c-.34-5.35-.38-11.16.16-17.35.75-9.07,2.56-17.41,4.94-24.95,2.97,5.22,8.66,15.16,16.95,28.08,4.69,7.32,8.72,13.26,11.47,17.2-1,9.63-3.88,28.79-13.01,39.11ZM1872.71,669.07h-6.25l.03-9.38c1.22-1.53,8.25,5.47,6.22,9.38ZM1882.09,650.31c-8.85,1.53-5.13-2-6.97-6.94-2.16-5.82-12.19-26.89.69-24.32.28,11.22,8.97,19.32,6.28,31.26ZM1888.31,609.67c-12.38-8.54-13.51-17.73-9.32-31.26,10.16,5.88,9.54,21.2,9.32,31.26ZM1944.59,647.18l-6.38-29.73,3.31-29.67c4.28-.69,6.07,8.66,6.16,11.16.22,5.35-2.97,10.07-3.13,15.35-.41,10.94.41,21.98.03,32.89ZM1950.87,578.4c-1.66,1.84-7.88-1.38-9.04-5.13-2.66-8.57,5.85-25.95,3.03-36.83l6-20.57v62.53Z"/>
  </g>
</svg>