<?xml version="1.0" encoding="UTF-8"?>
<svg id="Layer_2" data-name="Layer 2" xmlns="http://www.w3.org/2000/svg" viewBox="0 0 400 400">
  <defs>
    <style>
      .cls-1 {
        fill: #9a8c9b;
      }

      .cls-2 {
        fill: #fff;
      }

      .cls-3 {
        fill: none;
      }

      .cls-4 {
        fill: #5abdeb;
      }

      .cls-5 {
        fill: #f26d21;
      }

      .cls-6 {
        fill: #1494ce;
      }

      .cls-7 {
        fill: #0d1118;
      }
    </style>
  </defs>
  <g id="Layer_1-2" data-name="Layer 1">
    <g>
      <rect class="cls-3" width="400" height="400"/>
      <path class="cls-1" d="M186.68,399.98c.13-12.39.06-25.23-.25-38.5-.36-15.21-1-29.85-1.87-43.87,4.16-2.04,8.32-4.08,12.49-6.11-.7,11.89-1.15,24.44-1.25,37.61-.14,18.1.4,35.11,1.37,50.89h-10.49Z"/>
      <path class="cls-1" d="M156.13,367.75c-.11-15.33-.48-30.26-1.07-44.79,4.69-2.09,9.38-4.18,14.06-6.27-.9,14.66-1.67,29.59-2.29,44.79-.53,13.03-.93,25.87-1.22,38.52-3.21,0-6.42-.01-9.63-.02.18-10.54.23-21.29.15-32.24Z"/>
      <path class="cls-2" d="M271.24,36.99c-7.17-11.02-18.41-19.33-28.38-22.88-27.13-9.65-64.96,8.82-74.6,36.08-10.19,28.84,13.04,62.5,15.9,66.65,6.67,9.66,14.94,17.54,23.24,35.47,8.76,18.92,6.76,25.71,5.28,28.83-3.55,7.53-11.91,10.29-23.63,13.97-19.08,6-25.1,2.76-41.58,6.73-18,4.33-30.35,12.88-38.21,18.32-17.32,11.99-27.27,24.99-33.33,33.04-12.24,16.27-17.09,29.83-25.68,50.14-6.78,16.03-6.99,19.56-5.5,22.62,4.13,8.5,26.25,7.82,70.32,6.11,53.61-2.08,61.05-2.52,73.99-6.73,6.14-2,26.62-9.28,48.31-26.29,9.34-7.33,23.03-18.29,34.24-37.3,5.7-9.68,12.39-21.02,13.45-37.3,1.14-17.6-4.91-31.52-7.95-38.52-3.03-6.97-7.11-13.41-15.29-26.29-6.92-10.92-11.04-16.22-12.23-17.73-5.76-7.35-8.3-9.33-15.29-17.12-12.9-14.39-21.91-24.44-19.57-28.13,2.42-3.81,12.81,3.01,30.57.61,11.94-1.61,12.82-5.47,25.94-8.92,22.8-5.99,39.11.69,40.36-3.26,1.39-4.39-19.86-9.14-32-29.76-4.85-8.23-3.15-10.35-8.36-18.34Z"/>
      <path class="cls-6" d="M151.39,305.16c-.05.51-.16,1.04-.27,1.55,0,0-.51,2.45-1.28,4.93-5.95,18.91-21.87,31.12-21.87,31.12-4.72,3.63-13.49,9.17-37.95,12.61-15.09,2.11-38.05,3.71-66.64-.75,3.55-16.75,8.16-31.55,13.17-44.4,1.23-3.17,2.51-6.27,3.79-9.2.72-1.68,1.44-3.31,2.19-4.91,1.55-.77,3.17-1.15,4.93-.85,6.48,1.12,7.12,9.79,13.44,10.11,6.96.32,9.55-9.92,16.51-9.49,6,.37,6.91,8.13,13.15,8.56,6.45.45,8.43-7.52,15.31-7.33,6.24.16,7.25,6.8,13.76,7.04,6.53.21,8.03-6.4,14.35-6.13,6.53.29,8.29,7.47,14.37,7.65.96.03,2-.11,3.04-.51Z"/>
      <path class="cls-4" d="M148.08,272.14c2.32,6.03,5.92,17.97,3.44,32.32-.03.24-.08.45-.13.69-1.04.4-2.08.53-3.04.51-6.08-.19-7.84-7.36-14.37-7.65-6.32-.27-7.81,6.35-14.35,6.13-6.51-.24-7.52-6.88-13.76-7.04-6.88-.19-8.85,7.79-15.31,7.33-6.24-.43-7.15-8.19-13.15-8.56-6.96-.43-9.55,9.81-16.51,9.49-6.32-.32-6.96-8.99-13.44-10.11-1.76-.29-3.39.08-4.93.85,5.6-12.35,11.33-22.4,16.24-30.19,8.99-14.32,19.65-28.05,35.79-39.95,13.07-9.6,31.47-23.15,48.32-16.51,13.49,5.31,17.76,20.91,18.27,22.85,3.71,13.97-1.36,29.36-13.07,39.81Z"/>
      <circle class="cls-7" cx="240.38" cy="56.65" r="8.66"/>
      <path class="cls-5" d="M377.83,101.2c-35.53-4.28-71.07-8.56-106.6-12.84-.75-1.02-6.08-8.53-3.67-18.34,2.46-9.99,10.92-14.15,12.03-14.68,32.75,15.29,65.49,30.57,98.24,45.86Z"/>
    </g>
  </g>
</svg>